<?xml version="1.0" encoding="UTF-8" standalone="no"?><!DOCTYPE svg PUBLIC "-//W3C//DTD SVG 1.1//EN" "http://www.w3.org/Graphics/SVG/1.1/DTD/svg11.dtd"><svg width="100%" height="100%" viewBox="0 0 201 201" version="1.1" xmlns="http://www.w3.org/2000/svg" xmlns:xlink="http://www.w3.org/1999/xlink" xml:space="preserve" xmlns:serif="http://www.serif.com/" style="fill-rule:evenodd;clip-rule:evenodd;stroke-linejoin:round;stroke-miterlimit:2;"><rect id="Artboard1" x="0" y="-0" width="200" height="200" style="fill:none;"/><g><clipPath id="_clip1"><rect x="38.546" y="32.28" width="106.87" height="123.849"/></clipPath><g clip-path="url(#_clip1)"><path d="M147.498,132.651l0,-33.328l-6.682,0l0,-20l-6.677,0l0,-6.661l-6.682,0l0,-13.333l6.682,0l0,-6.667l6.677,0l0,-6.667l-6.677,0l0,-6.661l-20.042,0l0,6.661l-6.677,0l0,6.667l-13.359,0l0,-6.667l-6.677,0l0,-6.661l-20.042,0l0,6.661l-6.677,0l0,6.667l6.677,0l0,6.667l6.682,0l0,13.333l-6.682,0l0,6.661l-6.677,0l0,20l-6.682,0l0,33.328l-6.677,0l0,13.328l6.677,0l0,6.667l6.682,0l0,13.328l-6.682,0l0,20l-6.677,0l0,13.328l6.677,0l0,6.667l13.359,0l0,19.995l6.682,0l0,26.661l-6.682,0l0,13.333l6.682,0l0,6.667l20.036,0l0,-6.667l13.359,0l0,6.667l20.036,0l0,-6.667l6.682,0l0,-13.333l-6.682,0l0,-26.661l6.682,0l0,-19.995l13.359,0l0,-6.667l6.677,0l0,-13.328l-6.677,0l0,-20l-6.682,0l0,-13.328l6.682,0l0,-6.667l6.677,0l0,-13.328l-6.677,0Z" style="fill:#160059;fill-rule:nonzero;"/></g></g><rect x="67.342" y="45.995" width="26.719" height="13.333" style="fill:#d00096;fill-rule:nonzero;"/><rect x="107.42" y="45.995" width="26.719" height="13.333" style="fill:#d00096;fill-rule:nonzero;"/><g><clipPath id="_clip2"><rect x="44.613" y="125.613" width="94.667" height="30.516"/></clipPath><g clip-path="url(#_clip2)"><path d="M140.816,165.974l0,-13.328l-6.677,0l0,-13.333l-6.682,0l0,-6.661l-20.036,0l0,13.328l-13.359,0l0,-13.328l-20.036,0l0,6.661l-6.682,0l0,13.333l-6.677,0l0,13.328l-6.682,0l0,20l26.719,0l0,6.667l40.078,0l0,-6.667l26.719,0l0,-20l-6.682,0Z" style="fill:#d00096;fill-rule:nonzero;"/></g></g><path d="M107.42,52.662l-13.359,0l0,6.667l-20.036,0l0,6.667l53.432,0l0,-6.667l-20.036,0l0,-6.667Z" style="fill:#160059;fill-rule:nonzero;"/><rect x="87.384" y="45.995" width="6.677" height="6.667" style="fill:#160059;fill-rule:nonzero;"/><rect x="67.342" y="39.334" width="20.042" height="6.661" style="fill:#160059;fill-rule:nonzero;"/><rect x="60.665" y="45.995" width="6.677" height="6.667" style="fill:#160059;fill-rule:nonzero;"/><rect x="67.342" y="52.662" width="6.682" height="6.667" style="fill:#160059;fill-rule:nonzero;"/><rect x="107.42" y="45.995" width="6.677" height="6.667" style="fill:#160059;fill-rule:nonzero;"/><rect x="114.097" y="39.334" width="20.042" height="6.661" style="fill:#160059;fill-rule:nonzero;"/><rect x="134.139" y="45.995" width="6.677" height="6.667" style="fill:#160059;fill-rule:nonzero;"/><rect x="127.457" y="52.662" width="6.682" height="6.667" style="fill:#160059;fill-rule:nonzero;"/><path d="M134.139,85.99l-66.797,0l0,33.328l6.682,0l0,6.667l6.677,0l0,6.667l40.078,0l0,-6.667l6.677,0l0,-6.667l6.682,0l0,-33.328Z" style="fill:#ffc6b0;fill-rule:nonzero;"/><rect x="87.384" y="59.328" width="26.714" height="6.667" style="fill:#ffbf11;fill-rule:nonzero;"/><g><clipPath id="_clip3"><rect x="38.546" y="58.947" width="106.87" height="88"/></clipPath><g clip-path="url(#_clip3)"><path d="M147.498,132.651l0,-33.328l-6.682,0l0,-20l-6.677,0l0,-6.661l-6.682,0l0,-6.667l-53.432,0l0,6.667l-6.682,0l0,6.661l-6.677,0l0,20l-6.682,0l0,33.328l-6.677,0l0,13.328l6.677,0l0,6.667l13.359,0l0,-13.333l6.682,0l0,-6.661l6.677,0l0,-6.667l-6.677,0l0,-20l6.677,0l0,-6.661l40.078,0l0,6.661l6.677,0l0,20l-6.677,0l0,6.667l6.677,0l0,6.661l6.682,0l0,13.333l13.359,0l0,-6.667l6.677,0l0,-13.328l-6.677,0Z" style="fill:#ffbf11;fill-rule:nonzero;"/></g></g><rect x="94.061" y="125.985" width="13.359" height="19.995" style="fill:#ffc6b0;fill-rule:nonzero;"/><rect x="87.384" y="59.328" width="13.359" height="6.667" style="fill:#160059;fill-rule:nonzero;"/><rect x="74.024" y="65.995" width="13.359" height="6.667" style="fill:#160059;fill-rule:nonzero;"/><rect x="114.097" y="65.995" width="13.359" height="6.667" style="fill:#160059;fill-opacity:0.5;fill-rule:nonzero;"/><rect x="87.384" y="79.323" width="26.714" height="6.667" style="fill:#160059;fill-opacity:0.3;fill-rule:nonzero;"/><rect x="114.097" y="72.662" width="13.359" height="6.661" style="fill:#160059;fill-opacity:0.2;fill-rule:nonzero;"/><rect x="74.024" y="72.662" width="13.359" height="6.661" style="fill:#160059;fill-opacity:0.2;fill-rule:nonzero;"/><path d="M134.139,99.323l0,-6.667l-6.682,0l0,-6.667l-13.359,0l0,6.667l6.682,0l0,6.667l13.359,0Z" style="fill:#160059;fill-opacity:0.2;fill-rule:nonzero;"/><path d="M74.024,92.656l-6.682,0l0,6.667l13.359,0l0,-6.667l6.682,0l0,-6.667l-13.359,0l0,6.667Z" style="fill:#160059;fill-opacity:0.2;fill-rule:nonzero;"/><path d="M60.665,132.651l-6.682,0l0,6.661l13.359,0l0,-6.661l6.682,0l0,-6.667l-13.359,0l0,6.667Z" style="fill:#160059;fill-opacity:0.2;fill-rule:nonzero;"/><path d="M140.816,132.651l0,-6.667l-13.359,0l0,6.667l6.682,0l0,6.661l13.359,0l0,-6.661l-6.682,0Z" style="fill:#160059;fill-opacity:0.2;fill-rule:nonzero;"/><rect x="100.743" y="59.328" width="13.354" height="6.667" style="fill:#160059;fill-opacity:0.5;fill-rule:nonzero;"/><rect x="67.342" y="72.662" width="6.682" height="6.661" style="fill:#160059;fill-rule:nonzero;"/><rect x="127.457" y="72.662" width="6.682" height="6.661" style="fill:#160059;fill-opacity:0.5;fill-rule:nonzero;"/><rect x="60.665" y="79.323" width="6.677" height="20" style="fill:#160059;fill-rule:nonzero;"/><rect x="134.139" y="79.323" width="6.677" height="20" style="fill:#160059;fill-opacity:0.5;fill-rule:nonzero;"/><rect x="53.983" y="99.323" width="6.682" height="33.328" style="fill:#160059;fill-rule:nonzero;"/><rect x="140.816" y="99.323" width="6.682" height="33.328" style="fill:#160059;fill-opacity:0.5;fill-rule:nonzero;"/><g><clipPath id="_clip4"><rect x="38.546" y="125.613" width="7.401" height="14.667"/></clipPath><g clip-path="url(#_clip4)"><rect x="47.306" y="132.651" width="6.677" height="13.328" style="fill:#160059;fill-rule:nonzero;"/></g></g><rect x="53.983" y="145.979" width="13.359" height="6.667" style="fill:#160059;fill-rule:nonzero;"/><rect x="134.139" y="145.979" width="13.359" height="6.667" style="fill:#160059;fill-rule:nonzero;"/><rect x="67.342" y="139.313" width="6.682" height="6.667" style="fill:#160059;fill-rule:nonzero;"/><rect x="127.457" y="139.313" width="6.682" height="6.667" style="fill:#160059;fill-rule:nonzero;"/><rect x="74.024" y="125.985" width="6.677" height="13.328" style="fill:#160059;fill-rule:nonzero;"/><rect x="67.342" y="105.985" width="6.682" height="20" style="fill:#160059;fill-rule:nonzero;"/><rect x="127.457" y="105.985" width="6.682" height="20" style="fill:#160059;fill-rule:nonzero;"/><rect x="74.024" y="99.323" width="6.677" height="6.661" style="fill:#160059;fill-rule:nonzero;"/><rect x="120.78" y="99.323" width="6.677" height="6.661" style="fill:#160059;fill-rule:nonzero;"/><rect x="120.78" y="125.985" width="6.677" height="13.328" style="fill:#160059;fill-rule:nonzero;"/><g><clipPath id="_clip5"><rect x="137.947" y="125.613" width="7.469" height="14.667"/></clipPath><g clip-path="url(#_clip5)"><rect x="147.498" y="132.651" width="6.677" height="13.328" style="fill:#160059;fill-opacity:0.5;fill-rule:nonzero;"/></g></g><rect x="80.701" y="92.656" width="40.078" height="6.667" style="fill:#160059;fill-rule:nonzero;"/><rect x="74.024" y="132.651" width="20.036" height="6.661" style="fill:#160059;fill-rule:nonzero;"/><rect x="107.42" y="132.651" width="20.036" height="6.661" style="fill:#160059;fill-rule:nonzero;"/><rect x="87.384" y="132.651" width="26.714" height="6.661" style="fill:#160059;fill-opacity:0.5;fill-rule:nonzero;"/><rect x="94.061" y="139.313" width="13.359" height="6.667" style="fill:#160059;fill-opacity:0.2;fill-rule:nonzero;"/><rect x="80.701" y="99.323" width="40.078" height="6.661" style="fill:#160059;fill-opacity:0.2;fill-rule:nonzero;"/><rect x="74.024" y="105.985" width="6.677" height="20" style="fill:#160059;fill-opacity:0.2;fill-rule:nonzero;"/><rect x="80.701" y="125.985" width="6.682" height="6.667" style="fill:#160059;fill-opacity:0.2;fill-rule:nonzero;"/><rect x="80.701" y="99.323" width="6.682" height="6.661" style="fill:#160059;fill-opacity:0.2;fill-rule:nonzero;"/><rect x="114.097" y="99.323" width="6.682" height="6.661" style="fill:#160059;fill-rule:nonzero;"/><rect x="80.701" y="112.651" width="13.359" height="6.667" style="fill:#160059;fill-rule:nonzero;"/><rect x="107.42" y="112.651" width="13.359" height="6.667" style="fill:#160059;fill-rule:nonzero;"/><rect x="87.384" y="119.318" width="6.677" height="6.667" style="fill:#d00096;fill-rule:nonzero;"/><rect x="107.42" y="119.318" width="6.677" height="6.667" style="fill:#d00096;fill-rule:nonzero;"/><g><clipPath id="_clip6"><rect x="51.28" y="138.947" width="8" height="17.182"/></clipPath><g clip-path="url(#_clip6)"><rect x="60.665" y="145.979" width="6.677" height="19.995" style="fill:#160059;fill-rule:nonzero;"/></g></g><g><clipPath id="_clip7"><rect x="124.613" y="138.947" width="8" height="17.182"/></clipPath><g clip-path="url(#_clip7)"><rect x="134.139" y="145.979" width="6.677" height="19.995" style="fill:#160059;fill-rule:nonzero;"/></g></g><rect x="94.061" y="145.979" width="13.359" height="6.667" style="fill:#160059;fill-rule:nonzero;"/><rect x="87.384" y="132.651" width="6.677" height="13.328" style="fill:#160059;fill-rule:nonzero;"/><rect x="107.42" y="132.651" width="6.677" height="13.328" style="fill:#160059;fill-rule:nonzero;"/><rect x="74.024" y="52.662" width="6.677" height="6.667" style="fill:#160059;fill-opacity:0.5;fill-rule:nonzero;"/><rect x="67.342" y="45.995" width="6.682" height="6.667" style="fill:#160059;fill-opacity:0.5;fill-rule:nonzero;"/><rect x="127.457" y="45.995" width="6.682" height="6.667" style="fill:#160059;fill-opacity:0.5;fill-rule:nonzero;"/><rect x="120.78" y="52.662" width="6.677" height="6.667" style="fill:#160059;fill-opacity:0.5;fill-rule:nonzero;"/><rect x="114.097" y="45.995" width="6.682" height="6.667" style="fill:#160059;fill-opacity:0.3;fill-rule:nonzero;"/><rect x="80.701" y="45.995" width="6.682" height="6.667" style="fill:#160059;fill-opacity:0.3;fill-rule:nonzero;"/><rect x="87.384" y="52.662" width="6.677" height="6.667" style="fill:#160059;fill-opacity:0.3;fill-rule:nonzero;"/><rect x="107.42" y="52.662" width="6.677" height="6.667" style="fill:#160059;fill-opacity:0.3;fill-rule:nonzero;"/><rect x="74.024" y="59.328" width="26.719" height="6.667" style="fill:#160059;fill-rule:nonzero;"/><rect x="94.061" y="52.662" width="6.682" height="13.333" style="fill:#160059;fill-rule:nonzero;"/><rect x="74.024" y="139.313" width="6.677" height="6.667" style="fill:#160059;fill-opacity:0.5;fill-rule:nonzero;"/><rect x="120.78" y="139.313" width="6.677" height="6.667" style="fill:#160059;fill-opacity:0.5;fill-rule:nonzero;"/><g><clipPath id="_clip8"><rect x="71.28" y="152.28" width="8" height="3.849"/></clipPath><g clip-path="url(#_clip8)"><rect x="80.701" y="159.313" width="6.682" height="26.661" style="fill:#160059;fill-opacity:0.2;fill-rule:nonzero;"/></g></g><g><clipPath id="_clip9"><rect x="104.613" y="152.28" width="8" height="3.849"/></clipPath><g clip-path="url(#_clip9)"><rect x="114.097" y="159.313" width="6.682" height="26.661" style="fill:#160059;fill-opacity:0.2;fill-rule:nonzero;"/></g></g></svg>