<?xml version="1.0" encoding="UTF-8" standalone="no"?><!DOCTYPE svg PUBLIC "-//W3C//DTD SVG 1.1//EN" "http://www.w3.org/Graphics/SVG/1.1/DTD/svg11.dtd"><svg width="100%" height="100%" viewBox="0 0 201 201" version="1.1" xmlns="http://www.w3.org/2000/svg" xmlns:xlink="http://www.w3.org/1999/xlink" xml:space="preserve" xmlns:serif="http://www.serif.com/" style="fill-rule:evenodd;clip-rule:evenodd;stroke-linejoin:round;stroke-miterlimit:2;"><rect id="Artboard4" x="0" y="0" width="200" height="200" style="fill:none;"/><g><clipPath id="_clip1"><rect x="32.435" y="38.283" width="137.833" height="123.849"/></clipPath><g clip-path="url(#_clip1)"><path d="M161.081,56.699l0,-9.203l-9.188,0l0,-9.198l-18.38,0l0,9.198l-9.188,0l0,9.203l-45.943,0l0,-9.203l-9.193,0l0,-9.198l-18.375,0l0,9.198l-9.188,0l0,9.203l-9.193,0l0,27.599l9.193,0l0,9.198l9.188,0l0,27.604l9.188,0l0,9.198l9.188,0l0,9.198l-9.188,0l0,9.203l-9.188,0l0,9.198l-9.188,0l0,18.401l-9.193,0l0,55.203l9.193,0l0,9.198l9.188,0l0,55.198l-9.188,0l0,18.401l9.188,0l0,18.401l9.188,0l0,9.203l27.568,0l0,-9.203l9.188,0l0,-18.401l9.187,0l0,18.401l9.193,0l0,9.203l27.562,0l0,-9.203l9.193,0l0,-18.401l9.188,0l0,-18.401l-9.188,0l0,-55.198l9.188,0l0,-9.198l9.188,0l0,-55.203l-9.188,0l0,-18.401l-9.188,0l0,-9.198l-9.193,0l0,-9.203l-9.188,0l0,-9.198l9.188,0l0,-9.198l9.193,0l0,-27.604l9.188,0l0,-9.198l9.188,0l0,-27.599l-9.188,0Z" style="fill:#160059;fill-rule:nonzero;"/></g></g><g><clipPath id="_clip2"><rect x="32.435" y="38.283" width="137.833" height="111.437"/></clipPath><g clip-path="url(#_clip2)"><path d="M161.081,56.699l0,-9.203l-9.188,0l0,-9.198l-18.38,0l0,9.198l-9.188,0l0,9.203l-45.943,0l0,-9.203l-9.193,0l0,-9.198l-18.375,0l0,9.198l-9.188,0l0,9.203l-9.193,0l0,27.599l18.38,0l0,-9.203l9.188,0l0,46.005l9.188,0l0,18.396l18.38,0l0,9.203l27.568,0l0,-9.203l18.375,0l0,-18.396l18.38,0l0,-27.604l9.188,0l0,-9.198l9.188,0l0,-27.599l-9.188,0Z" style="fill:#fda000;fill-rule:nonzero;"/></g></g><g><clipPath id="_clip3"><rect x="32.435" y="139.053" width="137.833" height="23.078"/></clipPath><g clip-path="url(#_clip3)"><path d="M161.081,176.298l0,-18.401l-9.188,0l0,-9.198l-9.193,0l0,-9.203l-27.562,0l0,18.401l-27.568,0l0,-18.401l-27.568,0l0,9.203l-9.188,0l0,9.198l-9.188,0l0,18.401l-9.193,0l0,36.802l27.568,0l0,18.401l-9.188,0l0,64.396l-9.188,0l0,18.401l119.453,0l0,-18.401l-9.188,0l0,-64.396l-9.193,0l0,-18.401l27.568,0l0,-36.802l-9.188,0Z" style="fill:#00efa5;fill-rule:nonzero;"/></g></g><rect x="60.003" y="139.496" width="27.568" height="9.203" style="fill:#160059;fill-rule:nonzero;"/><rect x="50.815" y="148.699" width="9.188" height="9.198" style="fill:#160059;fill-rule:nonzero;"/><g><clipPath id="_clip4"><rect x="41.227" y="157.72" width="10.667" height="4.411"/></clipPath><g clip-path="url(#_clip4)"><rect x="41.628" y="157.897" width="9.188" height="18.401" style="fill:#160059;fill-rule:nonzero;"/></g></g><rect x="115.138" y="139.496" width="27.562" height="9.203" style="fill:#160059;fill-opacity:0.5;fill-rule:nonzero;"/><rect x="142.701" y="148.699" width="9.193" height="9.198" style="fill:#160059;fill-opacity:0.5;fill-rule:nonzero;"/><g><clipPath id="_clip5"><rect x="151.893" y="157.72" width="9.333" height="4.411"/></clipPath><g clip-path="url(#_clip5)"><rect x="151.893" y="157.897" width="9.188" height="18.401" style="fill:#160059;fill-opacity:0.5;fill-rule:nonzero;"/></g></g><rect x="115.138" y="139.496" width="18.375" height="9.203" style="fill:#160059;fill-rule:nonzero;"/><rect x="78.383" y="139.496" width="45.943" height="9.203" style="fill:#160059;fill-opacity:0.2;fill-rule:nonzero;"/><g><clipPath id="_clip6"><rect x="133.227" y="157.72" width="10.667" height="4.411"/></clipPath><g clip-path="url(#_clip6)"><rect x="133.513" y="157.897" width="9.188" height="9.203" style="fill:#fff200;fill-rule:nonzero;"/></g></g><g><clipPath id="_clip7"><rect x="50.56" y="157.72" width="10.667" height="4.411"/></clipPath><g clip-path="url(#_clip7)"><rect x="50.815" y="157.897" width="9.188" height="9.203" style="fill:#fff200;fill-rule:nonzero;"/></g></g><rect x="60.003" y="148.699" width="18.38" height="9.198" style="fill:#160059;fill-opacity:0.2;fill-rule:nonzero;"/><rect x="124.326" y="148.699" width="18.375" height="9.198" style="fill:#160059;fill-opacity:0.2;fill-rule:nonzero;"/><g><clipPath id="_clip8"><rect x="77.227" y="148.387" width="48" height="13.745"/></clipPath><g clip-path="url(#_clip8)"><path d="M124.326,148.699l-45.943,0l0,18.401l18.375,0l0,-9.203l9.187,0l0,9.203l18.38,0l0,-18.401Z" style="fill:#f0f;fill-rule:nonzero;"/></g></g><g><clipPath id="_clip9"><rect x="77.227" y="148.387" width="10.667" height="13.745"/></clipPath><g clip-path="url(#_clip9)"><rect x="78.383" y="148.699" width="9.187" height="18.401" style="fill:#160059;fill-opacity:0.5;fill-rule:nonzero;"/></g></g><g><clipPath id="_clip10"><rect x="114.56" y="148.387" width="10.667" height="13.745"/></clipPath><g clip-path="url(#_clip10)"><rect x="115.138" y="148.699" width="9.188" height="18.401" style="fill:#160059;fill-opacity:0.5;fill-rule:nonzero;"/></g></g><g><clipPath id="_clip11"><rect x="77.227" y="157.72" width="20" height="4.411"/></clipPath><g clip-path="url(#_clip11)"><rect x="78.383" y="157.897" width="18.375" height="9.203" style="fill:#160059;fill-opacity:0.5;fill-rule:nonzero;"/></g></g><rect x="96.758" y="148.699" width="9.187" height="9.198" style="fill:#160059;fill-opacity:0.5;fill-rule:nonzero;"/><g><clipPath id="_clip12"><rect x="105.227" y="157.72" width="20" height="4.411"/></clipPath><g clip-path="url(#_clip12)"><rect x="105.945" y="157.897" width="18.38" height="9.203" style="fill:#160059;fill-opacity:0.5;fill-rule:nonzero;"/></g></g><g><clipPath id="_clip13"><rect x="32.435" y="56.387" width="10.125" height="28"/></clipPath><g clip-path="url(#_clip13)"><rect x="32.435" y="56.699" width="9.193" height="27.599" style="fill:#160059;fill-rule:nonzero;"/></g></g><rect x="41.628" y="47.496" width="9.188" height="9.203" style="fill:#160059;fill-rule:nonzero;"/><g><rect x="50.815" y="38.298" width="18.375" height="9.198" style="fill:#160059;fill-rule:nonzero;"/></g><rect x="69.19" y="47.496" width="9.193" height="9.203" style="fill:#160059;fill-rule:nonzero;"/><rect x="41.628" y="84.298" width="9.188" height="9.198" style="fill:#160059;fill-rule:nonzero;"/><rect x="50.815" y="75.095" width="9.188" height="46.005" style="fill:#160059;fill-rule:nonzero;"/><rect x="60.003" y="121.1" width="9.188" height="9.198" style="fill:#160059;fill-rule:nonzero;"/><rect x="69.19" y="130.298" width="9.193" height="18.401" style="fill:#160059;fill-rule:nonzero;"/><rect x="124.326" y="130.298" width="9.188" height="18.401" style="fill:#160059;fill-rule:nonzero;"/><rect x="133.513" y="121.1" width="9.188" height="9.198" style="fill:#160059;fill-rule:nonzero;"/><g><rect x="161.081" y="56.699" width="9.188" height="27.599" style="fill:#160059;fill-opacity:0.5;fill-rule:nonzero;"/></g><rect x="151.893" y="47.496" width="9.188" height="9.203" style="fill:#160059;fill-opacity:0.5;fill-rule:nonzero;"/><rect x="60.003" y="111.897" width="9.188" height="9.203" style="fill:#160059;fill-opacity:0.5;fill-rule:nonzero;"/><rect x="60.003" y="102.699" width="9.188" height="9.198" style="fill:#160059;fill-opacity:0.2;fill-rule:nonzero;"/><rect x="133.513" y="102.699" width="9.188" height="9.198" style="fill:#160059;fill-opacity:0.2;fill-rule:nonzero;"/><rect x="124.326" y="93.496" width="9.188" height="18.401" style="fill:#160059;fill-opacity:0.1;fill-rule:nonzero;"/><rect x="69.19" y="93.496" width="9.193" height="18.401" style="fill:#160059;fill-opacity:0.1;fill-rule:nonzero;"/><rect x="124.326" y="121.1" width="9.188" height="9.198" style="fill:#160059;fill-opacity:0.2;fill-rule:nonzero;"/><rect x="69.19" y="121.1" width="9.193" height="9.198" style="fill:#160059;fill-opacity:0.2;fill-rule:nonzero;"/><path d="M151.893,84.298l0,-9.203l-9.193,0l0,36.802l-9.188,0l0,9.203l18.38,0l0,-27.604l9.188,0l0,-9.198l-9.188,0Z" style="fill:#160059;fill-opacity:0.5;fill-rule:nonzero;"/><g><rect x="133.513" y="38.298" width="18.38" height="9.198" style="fill:#160059;fill-opacity:0.5;fill-rule:nonzero;"/></g><rect x="124.326" y="47.496" width="9.188" height="9.203" style="fill:#160059;fill-opacity:0.5;fill-rule:nonzero;"/><rect x="78.383" y="56.699" width="27.562" height="9.198" style="fill:#160059;fill-rule:nonzero;"/><rect x="105.945" y="56.699" width="18.38" height="9.198" style="fill:#160059;fill-opacity:0.5;fill-rule:nonzero;"/><rect x="78.383" y="93.496" width="9.187" height="9.203" style="fill:#160059;fill-rule:nonzero;"/><rect x="115.138" y="93.496" width="9.188" height="9.203" style="fill:#160059;fill-rule:nonzero;"/><rect x="78.383" y="84.298" width="9.187" height="9.198" style="fill:#160059;fill-opacity:0.5;fill-rule:nonzero;"/><rect x="115.138" y="84.298" width="9.188" height="9.198" style="fill:#160059;fill-opacity:0.5;fill-rule:nonzero;"/><path d="M115.138,111.897l-27.568,0l0,9.203l9.188,0l0,9.198l9.187,0l0,-9.198l9.193,0l0,-9.203Z" style="fill:#160059;fill-rule:nonzero;"/><rect x="87.57" y="111.897" width="27.568" height="18.401" style="fill:#160059;fill-opacity:0.5;fill-rule:nonzero;"/><rect x="96.758" y="130.298" width="9.187" height="9.198" style="fill:#f0f;fill-rule:nonzero;"/><rect x="87.57" y="93.496" width="27.568" height="9.203" style="fill:#160059;fill-opacity:0.2;fill-rule:nonzero;"/><path d="M69.19,65.897l-18.375,0l0,9.198l9.188,0l0,9.203l9.188,0l0,-18.401Z" style="fill:#160059;fill-opacity:0.5;fill-rule:nonzero;"/><path d="M133.513,65.897l18.38,0l0,9.198l-9.193,0l0,9.203l-9.188,0l0,-18.401Z" style="fill:#160059;fill-opacity:0.5;fill-rule:nonzero;"/><rect x="142.701" y="75.095" width="9.193" height="46.005" style="fill:#160059;fill-rule:nonzero;"/><rect x="69.19" y="56.699" width="9.193" height="9.198" style="fill:#160059;fill-opacity:0.2;fill-rule:nonzero;"/><rect x="96.758" y="65.897" width="9.187" height="9.198" style="fill:#160059;fill-opacity:0.2;fill-rule:nonzero;"/><rect x="60.003" y="47.496" width="9.188" height="9.203" style="fill:#160059;fill-opacity:0.2;fill-rule:nonzero;"/><rect x="124.326" y="56.699" width="9.188" height="9.198" style="fill:#160059;fill-opacity:0.2;fill-rule:nonzero;"/><rect x="87.57" y="65.897" width="27.568" height="9.198" style="fill:#160059;fill-opacity:0.2;fill-rule:nonzero;"/><rect x="133.513" y="47.496" width="9.188" height="9.203" style="fill:#160059;fill-opacity:0.2;fill-rule:nonzero;"/></svg>